<svg width="18" height="17" viewBox="0 0 18 17" fill="none" xmlns="http://www.w3.org/2000/svg">
<path d="M7.97682 1.24012C8.54104 0.801268 9.317 0.77384 9.90769 1.15783L10.0232 1.24012L17.0097 6.67404C17.6112 7.14185 17.3182 8.08386 16.5944 8.16155L16.4976 8.16667H15.6667V14.8333C15.6667 15.712 14.9868 16.4318 14.1245 16.4954L14.0001 16.5H4.00003C3.1214 16.5 2.40156 15.8201 2.33794 14.9577L2.33337 14.8333V8.16667H1.50247C0.741325 8.16667 0.392885 7.24368 0.916985 6.73758L0.990332 6.67404L7.97682 1.24012ZM9.00007 2.55571L3.68787 6.68739C3.87832 6.8417 4.00003 7.07748 4.00003 7.34167V14.8333H6.50003V10.6667C6.50003 9.28592 7.61932 8.16667 9.00007 8.16667C10.3807 8.16667 11.5001 9.28592 11.5001 10.6667V14.8333H14.0001V7.34167C14.0001 7.07746 14.1217 6.84169 14.3122 6.68739L9.00007 2.55571ZM9.00007 9.83334C8.53982 9.83334 8.16674 10.2064 8.16674 10.6667V14.8333H9.83341V10.6667C9.83341 10.2064 9.46024 9.83334 9.00007 9.83334Z" fill="#8491A5"/>
</svg>
